<mxfile host="Electron" modified="2024-05-11T02:49:10.256Z" agent="Mozilla/5.0 (Windows NT 10.0; Win64; x64) AppleWebKit/537.36 (KHTML, like Gecko) draw.io/24.2.5 Chrome/120.0.6099.109 Electron/28.1.0 Safari/537.36" etag="NdTkCq30q9RQUtyTdiIn" version="24.2.5" type="device">
  <diagram name="Страница — 1" id="1agS2Hn6xPZVU0LqQzxh">
    <mxGraphModel dx="1098" dy="828" grid="1" gridSize="10" guides="1" tooltips="1" connect="1" arrows="1" fold="1" page="0" pageScale="1" pageWidth="827" pageHeight="1169" math="0" shadow="0">
      <root>
        <mxCell id="0" />
        <mxCell id="1" parent="0" />
        <mxCell id="mpthLjtHvk6XflownPUi-1" value="Users" style="swimlane;fontStyle=0;childLayout=stackLayout;horizontal=1;startSize=26;horizontalStack=0;resizeParent=1;resizeParentMax=0;resizeLast=0;collapsible=1;marginBottom=0;align=center;fontSize=14;rounded=1;" parent="1" vertex="1">
          <mxGeometry x="90" y="240" width="160" height="236" as="geometry" />
        </mxCell>
        <mxCell id="mpthLjtHvk6XflownPUi-2" value="id" style="text;strokeColor=none;fillColor=none;spacingLeft=4;spacingRight=4;overflow=hidden;rotatable=0;points=[[0,0.5],[1,0.5]];portConstraint=eastwest;fontSize=12;whiteSpace=wrap;html=1;rounded=1;" parent="mpthLjtHvk6XflownPUi-1" vertex="1">
          <mxGeometry y="26" width="160" height="30" as="geometry" />
        </mxCell>
        <mxCell id="mpthLjtHvk6XflownPUi-3" value="name" style="text;strokeColor=none;fillColor=none;spacingLeft=4;spacingRight=4;overflow=hidden;rotatable=0;points=[[0,0.5],[1,0.5]];portConstraint=eastwest;fontSize=12;whiteSpace=wrap;html=1;rounded=1;" parent="mpthLjtHvk6XflownPUi-1" vertex="1">
          <mxGeometry y="56" width="160" height="30" as="geometry" />
        </mxCell>
        <mxCell id="mpthLjtHvk6XflownPUi-9" value="second_name" style="text;strokeColor=none;fillColor=none;spacingLeft=4;spacingRight=4;overflow=hidden;rotatable=0;points=[[0,0.5],[1,0.5]];portConstraint=eastwest;fontSize=12;whiteSpace=wrap;html=1;rounded=1;" parent="mpthLjtHvk6XflownPUi-1" vertex="1">
          <mxGeometry y="86" width="160" height="30" as="geometry" />
        </mxCell>
        <mxCell id="mpthLjtHvk6XflownPUi-5" value="surname" style="text;strokeColor=none;fillColor=none;spacingLeft=4;spacingRight=4;overflow=hidden;rotatable=0;points=[[0,0.5],[1,0.5]];portConstraint=eastwest;fontSize=12;whiteSpace=wrap;html=1;rounded=1;" parent="mpthLjtHvk6XflownPUi-1" vertex="1">
          <mxGeometry y="116" width="160" height="30" as="geometry" />
        </mxCell>
        <mxCell id="mpthLjtHvk6XflownPUi-6" value="login" style="text;strokeColor=none;fillColor=none;spacingLeft=4;spacingRight=4;overflow=hidden;rotatable=0;points=[[0,0.5],[1,0.5]];portConstraint=eastwest;fontSize=12;whiteSpace=wrap;html=1;rounded=1;" parent="mpthLjtHvk6XflownPUi-1" vertex="1">
          <mxGeometry y="146" width="160" height="30" as="geometry" />
        </mxCell>
        <mxCell id="mpthLjtHvk6XflownPUi-7" value="password" style="text;strokeColor=none;fillColor=none;spacingLeft=4;spacingRight=4;overflow=hidden;rotatable=0;points=[[0,0.5],[1,0.5]];portConstraint=eastwest;fontSize=12;whiteSpace=wrap;html=1;rounded=1;" parent="mpthLjtHvk6XflownPUi-1" vertex="1">
          <mxGeometry y="176" width="160" height="30" as="geometry" />
        </mxCell>
        <mxCell id="mpthLjtHvk6XflownPUi-8" value="role" style="text;strokeColor=none;fillColor=none;spacingLeft=4;spacingRight=4;overflow=hidden;rotatable=0;points=[[0,0.5],[1,0.5]];portConstraint=eastwest;fontSize=12;whiteSpace=wrap;html=1;rounded=1;" parent="mpthLjtHvk6XflownPUi-1" vertex="1">
          <mxGeometry y="206" width="160" height="30" as="geometry" />
        </mxCell>
        <mxCell id="mpthLjtHvk6XflownPUi-42" style="edgeStyle=orthogonalEdgeStyle;rounded=1;orthogonalLoop=1;jettySize=auto;html=1;exitX=1;exitY=0.5;exitDx=0;exitDy=0;" parent="mpthLjtHvk6XflownPUi-1" source="mpthLjtHvk6XflownPUi-5" target="mpthLjtHvk6XflownPUi-5" edge="1">
          <mxGeometry relative="1" as="geometry" />
        </mxCell>
        <mxCell id="mpthLjtHvk6XflownPUi-10" value="Goods" style="swimlane;fontStyle=0;childLayout=stackLayout;horizontal=1;startSize=26;horizontalStack=0;resizeParent=1;resizeParentMax=0;resizeLast=0;collapsible=1;marginBottom=0;align=center;fontSize=14;rounded=1;" parent="1" vertex="1">
          <mxGeometry x="740" y="240" width="160" height="266" as="geometry" />
        </mxCell>
        <mxCell id="mpthLjtHvk6XflownPUi-11" value="id" style="text;strokeColor=none;fillColor=none;spacingLeft=4;spacingRight=4;overflow=hidden;rotatable=0;points=[[0,0.5],[1,0.5]];portConstraint=eastwest;fontSize=12;whiteSpace=wrap;html=1;rounded=1;" parent="mpthLjtHvk6XflownPUi-10" vertex="1">
          <mxGeometry y="26" width="160" height="30" as="geometry" />
        </mxCell>
        <mxCell id="mpthLjtHvk6XflownPUi-12" value="name" style="text;strokeColor=none;fillColor=none;spacingLeft=4;spacingRight=4;overflow=hidden;rotatable=0;points=[[0,0.5],[1,0.5]];portConstraint=eastwest;fontSize=12;whiteSpace=wrap;html=1;rounded=1;" parent="mpthLjtHvk6XflownPUi-10" vertex="1">
          <mxGeometry y="56" width="160" height="30" as="geometry" />
        </mxCell>
        <mxCell id="mpthLjtHvk6XflownPUi-14" value="price" style="text;strokeColor=none;fillColor=none;spacingLeft=4;spacingRight=4;overflow=hidden;rotatable=0;points=[[0,0.5],[1,0.5]];portConstraint=eastwest;fontSize=12;whiteSpace=wrap;html=1;rounded=1;" parent="mpthLjtHvk6XflownPUi-10" vertex="1">
          <mxGeometry y="86" width="160" height="30" as="geometry" />
        </mxCell>
        <mxCell id="mpthLjtHvk6XflownPUi-15" value="min_amount" style="text;strokeColor=none;fillColor=none;spacingLeft=4;spacingRight=4;overflow=hidden;rotatable=0;points=[[0,0.5],[1,0.5]];portConstraint=eastwest;fontSize=12;whiteSpace=wrap;html=1;fontStyle=0;rounded=1;" parent="mpthLjtHvk6XflownPUi-10" vertex="1">
          <mxGeometry y="116" width="160" height="30" as="geometry" />
        </mxCell>
        <mxCell id="mpthLjtHvk6XflownPUi-35" value="rem_stock" style="text;strokeColor=none;fillColor=none;spacingLeft=4;spacingRight=4;overflow=hidden;rotatable=0;points=[[0,0.5],[1,0.5]];portConstraint=eastwest;fontSize=12;whiteSpace=wrap;html=1;fontStyle=0;rounded=1;" parent="mpthLjtHvk6XflownPUi-10" vertex="1">
          <mxGeometry y="146" width="160" height="30" as="geometry" />
        </mxCell>
        <mxCell id="mpthLjtHvk6XflownPUi-16" value="img" style="text;strokeColor=none;fillColor=none;spacingLeft=4;spacingRight=4;overflow=hidden;rotatable=0;points=[[0,0.5],[1,0.5]];portConstraint=eastwest;fontSize=12;whiteSpace=wrap;html=1;rounded=1;" parent="mpthLjtHvk6XflownPUi-10" vertex="1">
          <mxGeometry y="176" width="160" height="30" as="geometry" />
        </mxCell>
        <mxCell id="mpthLjtHvk6XflownPUi-18" value="type_id" style="text;strokeColor=none;fillColor=none;spacingLeft=4;spacingRight=4;overflow=hidden;rotatable=0;points=[[0,0.5],[1,0.5]];portConstraint=eastwest;fontSize=12;whiteSpace=wrap;html=1;rounded=1;" parent="mpthLjtHvk6XflownPUi-10" vertex="1">
          <mxGeometry y="206" width="160" height="30" as="geometry" />
        </mxCell>
        <mxCell id="mpthLjtHvk6XflownPUi-17" value="brand_id" style="text;strokeColor=none;fillColor=none;spacingLeft=4;spacingRight=4;overflow=hidden;rotatable=0;points=[[0,0.5],[1,0.5]];portConstraint=eastwest;fontSize=12;whiteSpace=wrap;html=1;rounded=1;" parent="mpthLjtHvk6XflownPUi-10" vertex="1">
          <mxGeometry y="236" width="160" height="30" as="geometry" />
        </mxCell>
        <mxCell id="mpthLjtHvk6XflownPUi-19" value="Goods_Info" style="swimlane;fontStyle=0;childLayout=stackLayout;horizontal=1;startSize=26;horizontalStack=0;resizeParent=1;resizeParentMax=0;resizeLast=0;collapsible=1;marginBottom=0;align=center;fontSize=14;rounded=1;" parent="1" vertex="1">
          <mxGeometry x="990" y="240" width="160" height="146" as="geometry" />
        </mxCell>
        <mxCell id="mpthLjtHvk6XflownPUi-20" value="id" style="text;strokeColor=none;fillColor=none;spacingLeft=4;spacingRight=4;overflow=hidden;rotatable=0;points=[[0,0.5],[1,0.5]];portConstraint=eastwest;fontSize=12;whiteSpace=wrap;html=1;rounded=1;" parent="mpthLjtHvk6XflownPUi-19" vertex="1">
          <mxGeometry y="26" width="160" height="30" as="geometry" />
        </mxCell>
        <mxCell id="mpthLjtHvk6XflownPUi-21" value="goods_id" style="text;strokeColor=none;fillColor=none;spacingLeft=4;spacingRight=4;overflow=hidden;rotatable=0;points=[[0,0.5],[1,0.5]];portConstraint=eastwest;fontSize=12;whiteSpace=wrap;html=1;rounded=1;" parent="mpthLjtHvk6XflownPUi-19" vertex="1">
          <mxGeometry y="56" width="160" height="30" as="geometry" />
        </mxCell>
        <mxCell id="mpthLjtHvk6XflownPUi-22" value="title" style="text;strokeColor=none;fillColor=none;spacingLeft=4;spacingRight=4;overflow=hidden;rotatable=0;points=[[0,0.5],[1,0.5]];portConstraint=eastwest;fontSize=12;whiteSpace=wrap;html=1;rounded=1;" parent="mpthLjtHvk6XflownPUi-19" vertex="1">
          <mxGeometry y="86" width="160" height="30" as="geometry" />
        </mxCell>
        <mxCell id="mpthLjtHvk6XflownPUi-23" value="description" style="text;strokeColor=none;fillColor=none;spacingLeft=4;spacingRight=4;overflow=hidden;rotatable=0;points=[[0,0.5],[1,0.5]];portConstraint=eastwest;fontSize=12;whiteSpace=wrap;html=1;fontStyle=0;rounded=1;" parent="mpthLjtHvk6XflownPUi-19" vertex="1">
          <mxGeometry y="116" width="160" height="30" as="geometry" />
        </mxCell>
        <mxCell id="mpthLjtHvk6XflownPUi-27" value="Brand_id" style="swimlane;fontStyle=0;childLayout=stackLayout;horizontal=1;startSize=26;horizontalStack=0;resizeParent=1;resizeParentMax=0;resizeLast=0;collapsible=1;marginBottom=0;align=center;fontSize=14;rounded=1;" parent="1" vertex="1">
          <mxGeometry x="980" y="570" width="160" height="86" as="geometry" />
        </mxCell>
        <mxCell id="mpthLjtHvk6XflownPUi-28" value="id" style="text;strokeColor=none;fillColor=none;spacingLeft=4;spacingRight=4;overflow=hidden;rotatable=0;points=[[0,0.5],[1,0.5]];portConstraint=eastwest;fontSize=12;whiteSpace=wrap;html=1;rounded=1;" parent="mpthLjtHvk6XflownPUi-27" vertex="1">
          <mxGeometry y="26" width="160" height="30" as="geometry" />
        </mxCell>
        <mxCell id="mpthLjtHvk6XflownPUi-29" value="name" style="text;strokeColor=none;fillColor=none;spacingLeft=4;spacingRight=4;overflow=hidden;rotatable=0;points=[[0,0.5],[1,0.5]];portConstraint=eastwest;fontSize=12;whiteSpace=wrap;html=1;rounded=1;" parent="mpthLjtHvk6XflownPUi-27" vertex="1">
          <mxGeometry y="56" width="160" height="30" as="geometry" />
        </mxCell>
        <mxCell id="mpthLjtHvk6XflownPUi-32" value="Type_id" style="swimlane;fontStyle=0;childLayout=stackLayout;horizontal=1;startSize=26;horizontalStack=0;resizeParent=1;resizeParentMax=0;resizeLast=0;collapsible=1;marginBottom=0;align=center;fontSize=14;rounded=1;" parent="1" vertex="1">
          <mxGeometry x="980" y="460" width="160" height="86" as="geometry" />
        </mxCell>
        <mxCell id="mpthLjtHvk6XflownPUi-33" value="id" style="text;strokeColor=none;fillColor=none;spacingLeft=4;spacingRight=4;overflow=hidden;rotatable=0;points=[[0,0.5],[1,0.5]];portConstraint=eastwest;fontSize=12;whiteSpace=wrap;html=1;rounded=1;" parent="mpthLjtHvk6XflownPUi-32" vertex="1">
          <mxGeometry y="26" width="160" height="30" as="geometry" />
        </mxCell>
        <mxCell id="mpthLjtHvk6XflownPUi-34" value="name" style="text;strokeColor=none;fillColor=none;spacingLeft=4;spacingRight=4;overflow=hidden;rotatable=0;points=[[0,0.5],[1,0.5]];portConstraint=eastwest;fontSize=12;whiteSpace=wrap;html=1;rounded=1;" parent="mpthLjtHvk6XflownPUi-32" vertex="1">
          <mxGeometry y="56" width="160" height="30" as="geometry" />
        </mxCell>
        <mxCell id="mpthLjtHvk6XflownPUi-38" value="" style="edgeStyle=entityRelationEdgeStyle;fontSize=12;html=1;endArrow=ERoneToMany;rounded=1;exitX=0.25;exitY=0;exitDx=0;exitDy=0;" parent="1" source="mpthLjtHvk6XflownPUi-27" target="mpthLjtHvk6XflownPUi-17" edge="1">
          <mxGeometry width="100" height="100" relative="1" as="geometry">
            <mxPoint x="550" y="530" as="sourcePoint" />
            <mxPoint x="650" y="430" as="targetPoint" />
          </mxGeometry>
        </mxCell>
        <mxCell id="mpthLjtHvk6XflownPUi-39" value="" style="edgeStyle=entityRelationEdgeStyle;fontSize=12;html=1;endArrow=ERoneToMany;rounded=1;exitX=0.75;exitY=0;exitDx=0;exitDy=0;" parent="1" source="mpthLjtHvk6XflownPUi-32" target="mpthLjtHvk6XflownPUi-18" edge="1">
          <mxGeometry width="100" height="100" relative="1" as="geometry">
            <mxPoint x="910" y="540" as="sourcePoint" />
            <mxPoint x="1000" y="460" as="targetPoint" />
            <Array as="points">
              <mxPoint x="1000" y="500" />
              <mxPoint x="980" y="490" />
              <mxPoint x="960" y="500" />
            </Array>
          </mxGeometry>
        </mxCell>
        <mxCell id="mpthLjtHvk6XflownPUi-41" value="" style="edgeStyle=entityRelationEdgeStyle;fontSize=12;html=1;endArrow=ERoneToMany;rounded=1;" parent="1" source="mpthLjtHvk6XflownPUi-11" target="mpthLjtHvk6XflownPUi-21" edge="1">
          <mxGeometry width="100" height="100" relative="1" as="geometry">
            <mxPoint x="830" y="310" as="sourcePoint" />
            <mxPoint x="930" y="210" as="targetPoint" />
          </mxGeometry>
        </mxCell>
        <mxCell id="-XSYrTNbVfZoI2kpaI2c-11" value="Basket" style="swimlane;fontStyle=0;childLayout=stackLayout;horizontal=1;startSize=26;horizontalStack=0;resizeParent=1;resizeParentMax=0;resizeLast=0;collapsible=1;marginBottom=0;align=center;fontSize=14;rounded=1;" vertex="1" parent="1">
          <mxGeometry x="310" y="240" width="160" height="86" as="geometry" />
        </mxCell>
        <mxCell id="-XSYrTNbVfZoI2kpaI2c-12" value="id" style="text;strokeColor=none;fillColor=none;spacingLeft=4;spacingRight=4;overflow=hidden;rotatable=0;points=[[0,0.5],[1,0.5]];portConstraint=eastwest;fontSize=12;whiteSpace=wrap;html=1;rounded=1;" vertex="1" parent="-XSYrTNbVfZoI2kpaI2c-11">
          <mxGeometry y="26" width="160" height="30" as="geometry" />
        </mxCell>
        <mxCell id="-XSYrTNbVfZoI2kpaI2c-13" value="user_id" style="text;strokeColor=none;fillColor=none;spacingLeft=4;spacingRight=4;overflow=hidden;rotatable=0;points=[[0,0.5],[1,0.5]];portConstraint=eastwest;fontSize=12;whiteSpace=wrap;html=1;rounded=1;" vertex="1" parent="-XSYrTNbVfZoI2kpaI2c-11">
          <mxGeometry y="56" width="160" height="30" as="geometry" />
        </mxCell>
        <mxCell id="-XSYrTNbVfZoI2kpaI2c-14" style="edgeStyle=orthogonalEdgeStyle;rounded=1;orthogonalLoop=1;jettySize=auto;html=1;exitX=1;exitY=0.5;exitDx=0;exitDy=0;" edge="1" parent="-XSYrTNbVfZoI2kpaI2c-11">
          <mxGeometry relative="1" as="geometry">
            <mxPoint x="160" y="131" as="sourcePoint" />
            <mxPoint x="160" y="131" as="targetPoint" />
          </mxGeometry>
        </mxCell>
        <mxCell id="-XSYrTNbVfZoI2kpaI2c-15" value="Basket_Goods" style="swimlane;fontStyle=0;childLayout=stackLayout;horizontal=1;startSize=26;horizontalStack=0;resizeParent=1;resizeParentMax=0;resizeLast=0;collapsible=1;marginBottom=0;align=center;fontSize=14;rounded=1;" vertex="1" parent="1">
          <mxGeometry x="510" y="240" width="160" height="86" as="geometry" />
        </mxCell>
        <mxCell id="-XSYrTNbVfZoI2kpaI2c-16" value="basket_id" style="text;strokeColor=none;fillColor=none;spacingLeft=4;spacingRight=4;overflow=hidden;rotatable=0;points=[[0,0.5],[1,0.5]];portConstraint=eastwest;fontSize=12;whiteSpace=wrap;html=1;rounded=1;" vertex="1" parent="-XSYrTNbVfZoI2kpaI2c-15">
          <mxGeometry y="26" width="160" height="30" as="geometry" />
        </mxCell>
        <mxCell id="-XSYrTNbVfZoI2kpaI2c-17" value="goods_id" style="text;strokeColor=none;fillColor=none;spacingLeft=4;spacingRight=4;overflow=hidden;rotatable=0;points=[[0,0.5],[1,0.5]];portConstraint=eastwest;fontSize=12;whiteSpace=wrap;html=1;rounded=1;" vertex="1" parent="-XSYrTNbVfZoI2kpaI2c-15">
          <mxGeometry y="56" width="160" height="30" as="geometry" />
        </mxCell>
        <mxCell id="-XSYrTNbVfZoI2kpaI2c-18" style="edgeStyle=orthogonalEdgeStyle;rounded=1;orthogonalLoop=1;jettySize=auto;html=1;exitX=1;exitY=0.5;exitDx=0;exitDy=0;" edge="1" parent="-XSYrTNbVfZoI2kpaI2c-15">
          <mxGeometry relative="1" as="geometry">
            <mxPoint x="160" y="131" as="sourcePoint" />
            <mxPoint x="160" y="131" as="targetPoint" />
          </mxGeometry>
        </mxCell>
        <mxCell id="-XSYrTNbVfZoI2kpaI2c-19" value="" style="edgeStyle=entityRelationEdgeStyle;fontSize=12;html=1;endArrow=ERmandOne;startArrow=ERmandOne;rounded=1;exitX=1;exitY=0.5;exitDx=0;exitDy=0;" edge="1" parent="1" source="mpthLjtHvk6XflownPUi-2" target="-XSYrTNbVfZoI2kpaI2c-13">
          <mxGeometry width="100" height="100" relative="1" as="geometry">
            <mxPoint x="290" y="520" as="sourcePoint" />
            <mxPoint x="390" y="420" as="targetPoint" />
          </mxGeometry>
        </mxCell>
        <mxCell id="-XSYrTNbVfZoI2kpaI2c-20" value="" style="edgeStyle=entityRelationEdgeStyle;fontSize=12;html=1;endArrow=ERoneToMany;rounded=1;" edge="1" parent="1" source="-XSYrTNbVfZoI2kpaI2c-12" target="-XSYrTNbVfZoI2kpaI2c-16">
          <mxGeometry width="100" height="100" relative="1" as="geometry">
            <mxPoint x="420" y="490" as="sourcePoint" />
            <mxPoint x="520" y="390" as="targetPoint" />
          </mxGeometry>
        </mxCell>
        <mxCell id="-XSYrTNbVfZoI2kpaI2c-21" value="" style="edgeStyle=entityRelationEdgeStyle;fontSize=12;html=1;endArrow=ERmandOne;startArrow=ERmandOne;rounded=1;" edge="1" parent="1" source="-XSYrTNbVfZoI2kpaI2c-17" target="mpthLjtHvk6XflownPUi-11">
          <mxGeometry width="100" height="100" relative="1" as="geometry">
            <mxPoint x="500" y="590" as="sourcePoint" />
            <mxPoint x="600" y="490" as="targetPoint" />
          </mxGeometry>
        </mxCell>
      </root>
    </mxGraphModel>
  </diagram>
</mxfile>
